<svg width="4292" height="39" viewBox="0 0 4292 39" fill="none" xmlns="http://www.w3.org/2000/svg">
<g clip-path="url(#clip0_10909_15322)">
<mask id="mask0_10909_15322" style="mask-type:alpha" maskUnits="userSpaceOnUse" x="0" y="-10" width="1073" height="49">
<rect y="-10" width="1073" height="49" fill="#D9D9D9"/>
</mask>
<g mask="url(#mask0_10909_15322)">
<path d="M0.763687 9.30064L0 11.0441V39H2146.42V0.469358C2136.07 0.0524315 2122.58 0.469358 2111.85 0.469358C2087.82 0.545163 2064.02 1.56853 2039.95 0.469358L2038.25 2.25078C2037.83 -1.00883 2031.27 1.37901 2029.38 3.08462C2028.66 3.38784 2029.23 1.60644 2028.36 1.37902C2026.47 0.915756 2017.68 0.92155 2014.11 0.923899L2013.5 0.924184C2003.91 0.924184 1993.26 1.41692 1983.55 1.90966C1980.14 2.09917 1980.56 2.78141 1978.4 4.82815L1978.82 2.25078C1972.37 2.5919 1965.59 0.848385 1959.3 0.545165C1947.02 -0.0233717 1934.93 2.74351 1922.99 0.545165L1923.44 2.25078C1915.25 2.28868 1907.14 1.30322 1898.99 1.37902C1890.28 1.45483 1875.49 1.41692 1867.27 2.5919C1864.39 3.00883 1865.22 4.75234 1864.46 4.82815H1863.14L1862.68 3.12253C1862.23 5.43458 1859.65 5.32088 1857.53 4.82815C1856.85 4.63863 1854.19 -0.554002 1853.36 4.82815L1856.01 4.41122C1853.85 9.49014 1846.99 1.83385 1843.62 5.6999C1843.58 4.79024 1843.58 3.19834 1842.78 2.66771C1839.07 0.166146 1825.43 4.41122 1820.95 3.27415L1820.12 4.86604L1818.34 3.16043L1817.5 4.79024L1814.32 3.99429L1817.88 1.45482C1808.29 1.68223 1798.7 3.57736 1789.11 3.80478C1784.87 3.91849 1778.84 1.75804 1773.95 3.91848L1773.16 2.32658C1771.68 4.22171 1771.15 4.03219 1769.56 2.36448L1767.85 4.03218L1767.4 1.45482C1766.45 0.848377 1751.14 2.13707 1748.52 2.51609C1746.97 2.74351 1741.96 5.88942 1744.35 2.32658L1739.01 3.19834L1740.03 5.66199C1741.13 6.53375 1752.16 2.59189 1754.06 5.7378L1754.93 3.19834L1756.71 6.60955C1748.52 6.60955 1740.18 9.45225 1732.79 4.90395H1737.23C1740.6 1.87176 1726.23 2.21288 1725.21 2.32658C1697.73 5.05556 1667.6 -0.554001 1639.86 3.61527C1638.79 3.80478 1637.77 3.23624 1636.75 3.19834L1635.72 4.97974C1632.84 0.393548 1632.62 3.88058 1632.2 3.99429C1630.91 4.29751 1624.43 2.70561 1622.38 2.66771C1618.9 2.554 1616.7 3.88058 1613.32 3.91848C1592.82 4.1838 1576.33 1.83385 1554.95 3.91848C1547.6 4.63863 1538.16 1.56853 1530.24 5.05555L1530.66 3.31204C1519.06 4.56282 1507.58 2.89512 1495.98 2.7056C1493.55 2.6677 1485.25 2.36449 1483.62 2.85722C1481.73 3.42575 1482.33 4.82814 1480.63 5.05555C1479.11 5.24506 1477.29 4.82814 1475.7 4.97974L1476.61 3.27415C1475.36 2.44029 1459.52 5.05555 1456.67 5.05555C1454.78 5.09345 1453.03 4.1459 1451.33 4.1459C1415.25 3.84268 1379.28 2.89512 1343.15 3.27415C1336.67 3.34995 1322.04 3.12253 1316.59 4.1459C1314.05 4.63863 1315.37 7.63292 1310.9 6.26843C1309.65 5.8894 1309.19 3.50156 1306.39 5.01766L1307.3 3.31204H1302.41L1305.52 5.01766H1295.78L1295.36 6.72327L1294.03 5.01766L1293.43 6.72327H1271.82L1272.73 5.01766C1265.91 1.87175 1259.16 4.52493 1252.8 4.56283C1243.13 4.63863 1233.88 4.1838 1224.37 4.1838C1213.45 4.14589 1203.9 5.62409 1192.53 5.39667C1187.07 5.28297 1181.65 3.65316 1176.12 4.1838L1177.9 5.88941C1172.4 6.60956 1166.79 4.52492 1161.53 4.41122C1120.4 3.65317 1065.9 1.75804 1028.56 8.31516C1022.08 9.45224 1002.34 9.37643 994.793 9.18692C991.61 9.07321 984.673 8.42887 984.673 8.42887C984.673 8.42887 980.5 7.59502 977.851 6.15473C976.752 6.30634 976.032 6.79907 975.387 7.63292C973.341 3.61526 965.267 7.63293 961.136 5.16927L960.226 6.83697C954.124 4.37331 949.045 6.07892 942.715 5.88941L941.275 7.63292L940.82 5.92731C938.508 8.20145 934.756 6.98859 932.103 7.67083C931.383 7.86034 931.61 9.11111 931.079 9.18692C928.578 9.49014 922.059 6.98858 921.301 10.2103L920.884 8.50467L916.449 7.59502L915 6.83697H911C896.9 6.57165 907.011 4.79024 892.874 5.01766C856.563 5.54829 819.646 5.54828 782.957 5.92731C762.982 6.11682 742.704 6.91277 722.654 6.68536C717.461 6.64746 719.356 6.04102 717.461 5.8136C712.61 5.20716 704.877 5.8136 699.647 5.8136C672.698 6.00312 645.257 6.26843 618.119 7.55711C616.603 7.63292 615.238 8.35307 613.76 8.46678L612.812 6.68536C607.923 9.30063 600.267 7.48132 594.316 7.67083C590.753 7.78454 585.409 9.30063 582.604 9.18692C581.581 9.14902 580.633 8.61838 580.482 7.55711L585.788 6.68536H576.502L576.653 8.23936L575.441 8.58048L576.047 10.1345C573.394 9.52804 569.149 9.60384 566.723 9.11111C566.306 8.99741 564.108 4.63863 561.341 10.1724L556.527 9.30064L555.5 8.23936L553 8.46678L551.5 9.11111C549.491 6.76116 548.871 9.18692 549.856 6.68536C531.208 6.91277 512.409 6.38213 494.064 8.42887L493.154 6.68536C491.146 8.23936 487.81 9.90707 486.938 6.68536C478.676 9.79336 467.494 5.96522 458.512 6.64746C455.479 6.87488 453.85 8.23936 451.007 8.39097L451.916 6.68536C449.642 6.91277 446.155 5.54829 446.572 8.39097L445.284 6.79908C436.793 7.1781 428.038 8.39096 419.548 8.42887C400.255 8.50467 380.66 7.44341 361.974 7.51922H320.736L324.261 8.39097C322.745 12.1812 319.637 7.67082 319.182 7.55711C318.159 7.3676 316.302 8.39097 314.975 7.55711L315.392 10.1345C314.217 11.3853 311.715 5.35877 312.284 10.1345H308.304L310.086 8.42887C302.316 8.84579 296.1 11.1199 288.405 8.42887L288.822 10.1345C285.108 9.22482 278.361 11.9538 276.39 9.30064L281.697 8.42887C278.626 8.46677 275.519 7.67082 272.448 7.55711C259.562 7.06438 240.573 6.49584 228.027 7.55711C226.17 7.70872 224.729 9.30063 223.82 9.14902C218.134 8.27727 218.741 8.46677 213.017 8.50467C179.625 8.80789 146.12 9.14901 112.803 10.9304C111.628 10.9683 110.529 10.3619 109.354 10.2482L107.535 12.7498C106.815 10.3619 103.82 11.8022 101.319 9.26273C99.9544 8.65629 100.22 10.8167 99.4238 11.0062C96.9222 11.5748 92.9803 10.6272 90.2514 11.0062L99.1205 9.30064L33.9283 8.39097L2.50719 9.30064L4.2886 11.0441H2.09026L0.763687 9.30064Z" fill="#EFBE25"/>
</g>
<mask id="mask1_10909_15322" style="mask-type:alpha" maskUnits="userSpaceOnUse" x="1073" y="-10" width="1073" height="49">
<rect width="1073" height="49" transform="matrix(-1 0 0 1 2146 -10)" fill="#D9D9D9"/>
</mask>
<g mask="url(#mask1_10909_15322)">
<path d="M2145.24 9.30064L2146 11.0441V39H-0.421387V0.469358C9.92603 0.0524315 23.4194 0.469358 34.1458 0.469358C58.176 0.545163 81.9785 1.56853 106.047 0.469358L107.752 2.25078C108.169 -1.00883 114.726 1.37901 116.621 3.08462C117.341 3.38784 116.773 1.60644 117.645 1.37902C119.533 0.915756 128.324 0.92155 131.889 0.923899L132.502 0.924184C142.092 0.924184 152.742 1.41692 162.445 1.90966C165.857 2.09917 165.44 2.78141 167.6 4.82815L167.183 2.25078C173.626 2.5919 180.411 0.848385 186.703 0.545165C198.984 -0.0233717 211.074 2.74351 223.014 0.545165L222.559 2.25078C230.746 2.28868 238.857 1.30322 247.006 1.37902C255.723 1.45483 270.505 1.41692 278.73 2.5919C281.611 3.00883 280.777 4.75234 281.535 4.82815H282.861L283.316 3.12253C283.771 5.43458 286.348 5.32088 288.471 4.82815C289.153 4.63863 291.807 -0.554002 292.64 4.82815L289.987 4.41122C292.148 9.49014 299.008 1.83385 302.381 5.6999C302.419 4.79024 302.419 3.19834 303.215 2.66771C306.93 0.166146 320.574 4.41122 325.047 3.27415L325.881 4.86604L327.662 3.16043L328.496 4.79024L331.68 3.99429L328.117 1.45482C337.706 1.68223 347.296 3.57736 356.885 3.80478C361.13 3.91849 367.157 1.75804 372.046 3.91848L372.842 2.32658C374.32 4.22171 374.851 4.03219 376.443 2.36448L378.148 4.03218L378.603 1.45482C379.551 0.848377 394.863 2.13707 397.479 2.51609C399.033 2.74351 404.036 5.88942 401.648 2.32658L406.992 3.19834L405.969 5.66199C404.87 6.53375 393.84 2.59189 391.945 5.7378L391.073 3.19834L389.292 6.60955C397.479 6.60955 405.817 9.45225 413.208 4.90395H408.773C405.4 1.87176 419.765 2.21288 420.789 2.32658C448.268 5.05556 478.4 -0.554001 506.145 3.61527C507.206 3.80478 508.23 3.23624 509.253 3.19834L510.276 4.97974C513.157 0.393548 513.384 3.88058 513.801 3.99429C515.09 4.29751 521.571 2.70561 523.618 2.66771C527.105 2.554 529.303 3.88058 532.677 3.91848C553.182 4.1838 569.669 1.83385 591.046 3.91848C598.399 4.63863 607.837 1.56853 615.759 5.05555L615.342 3.31204C626.94 4.56282 638.424 2.89512 650.022 2.7056C652.448 2.6677 660.749 2.36449 662.379 2.85722C664.274 3.42575 663.667 4.82814 665.373 5.05555C666.889 5.24506 668.708 4.82814 670.3 4.97974L669.391 3.27415C670.641 2.44029 686.485 5.05555 689.327 5.05555C691.223 5.09345 692.966 4.1459 694.672 4.1459C730.755 3.84268 766.724 2.89512 802.845 3.27415C809.327 3.34995 823.957 3.12253 829.415 4.1459C831.954 4.63863 830.628 7.63292 835.1 6.26843C836.351 5.8894 836.806 3.50156 839.611 5.01766L838.701 3.31204H843.59L840.482 5.01766H850.223L850.64 6.72327L851.967 5.01766L852.573 6.72327H874.178L873.268 5.01766C880.09 1.87175 886.837 4.52493 893.205 4.56283C902.87 4.63863 912.118 4.1838 921.631 4.1838C932.547 4.14589 942.099 5.62409 953.47 5.39667C958.928 5.28297 964.348 3.65316 969.881 4.1838L968.1 5.88941C973.596 6.60956 979.205 4.52492 984.474 4.41122C1025.6 3.65317 1080.1 1.75804 1117.44 8.31516C1123.92 9.45224 1143.66 9.37643 1151.21 9.18692C1154.39 9.07321 1161.33 8.42887 1161.33 8.42887C1161.33 8.42887 1165.5 7.59502 1168.15 6.15473C1169.25 6.30634 1169.97 6.79907 1170.61 7.63292C1172.66 3.61526 1180.73 7.63293 1184.86 5.16927L1185.77 6.83697C1191.88 4.37331 1196.95 6.07892 1203.28 5.88941L1204.72 7.63292L1205.18 5.92731C1207.49 8.20145 1211.24 6.98859 1213.9 7.67083C1214.62 7.86034 1214.39 9.11111 1214.92 9.18692C1217.42 9.49014 1223.94 6.98858 1224.7 10.2103L1225.12 8.50467L1229.55 7.59502L1231 6.83697H1235C1249.1 6.57165 1238.99 4.79024 1253.13 5.01766C1289.44 5.54829 1326.35 5.54828 1363.04 5.92731C1383.02 6.11682 1403.3 6.91277 1423.35 6.68536C1428.54 6.64746 1426.64 6.04102 1428.54 5.8136C1433.39 5.20716 1441.12 5.8136 1446.35 5.8136C1473.3 6.00312 1500.74 6.26843 1527.88 7.55711C1529.4 7.63292 1530.76 8.35307 1532.24 8.46678L1533.19 6.68536C1538.08 9.30063 1545.73 7.48132 1551.68 7.67083C1555.25 7.78454 1560.59 9.30063 1563.4 9.18692C1564.42 9.14902 1565.37 8.61838 1565.52 7.55711L1560.21 6.68536H1569.5L1569.35 8.23936L1570.56 8.58048L1569.95 10.1345C1572.61 9.52804 1576.85 9.60384 1579.28 9.11111C1579.69 8.99741 1581.89 4.63863 1584.66 10.1724L1589.47 9.30064L1590.5 8.23936L1593 8.46678L1594.5 9.11111C1596.51 6.76116 1597.13 9.18692 1596.14 6.68536C1614.79 6.91277 1633.59 6.38213 1651.94 8.42887L1652.85 6.68536C1654.85 8.23936 1658.19 9.90707 1659.06 6.68536C1667.32 9.79336 1678.51 5.96522 1687.49 6.64746C1690.52 6.87488 1692.15 8.23936 1694.99 8.39097L1694.08 6.68536C1696.36 6.91277 1699.84 5.54829 1699.43 8.39097L1700.72 6.79908C1709.21 7.1781 1717.96 8.39096 1726.45 8.42887C1745.74 8.50467 1765.34 7.44341 1784.03 7.51922H1825.26L1821.74 8.39097C1823.25 12.1812 1826.36 7.67082 1826.82 7.55711C1827.84 7.3676 1829.7 8.39097 1831.03 7.55711L1830.61 10.1345C1831.78 11.3853 1834.28 5.35877 1833.72 10.1345H1837.7L1835.91 8.42887C1843.68 8.84579 1849.9 11.1199 1857.59 8.42887L1857.18 10.1345C1860.89 9.22482 1867.64 11.9538 1869.61 9.30064L1864.3 8.42887C1867.37 8.46677 1870.48 7.67082 1873.55 7.55711C1886.44 7.06438 1905.43 6.49584 1917.97 7.55711C1919.83 7.70872 1921.27 9.30063 1922.18 9.14902C1927.87 8.27727 1927.26 8.46677 1932.98 8.50467C1966.37 8.80789 1999.88 9.14901 2033.2 10.9304C2034.37 10.9683 2035.47 10.3619 2036.65 10.2482L2038.47 12.7498C2039.19 10.3619 2042.18 11.8022 2044.68 9.26273C2046.05 8.65629 2045.78 10.8167 2046.58 11.0062C2049.08 11.5748 2053.02 10.6272 2055.75 11.0062L2046.88 9.30064L2112.07 8.39097L2143.49 9.30064L2141.71 11.0441H2143.91L2145.24 9.30064Z" fill="#EFBE25"/>
</g>
<mask id="mask2_10909_15322" style="mask-type:alpha" maskUnits="userSpaceOnUse" x="2146" y="-10" width="1073" height="49">
<rect x="2146" y="-10" width="1073" height="49" fill="#D9D9D9"/>
</mask>
<g mask="url(#mask2_10909_15322)">
<path d="M2146.76 9.30064L2146 11.0441V39H4292.42V0.469358C4282.07 0.0524315 4268.58 0.469358 4257.85 0.469358C4233.82 0.545163 4210.02 1.56853 4185.95 0.469358L4184.25 2.25078C4183.83 -1.00883 4177.27 1.37901 4175.38 3.08462C4174.66 3.38784 4175.23 1.60644 4174.36 1.37902C4172.47 0.915756 4163.68 0.92155 4160.11 0.923899L4159.5 0.924184C4149.91 0.924184 4139.26 1.41692 4129.55 1.90966C4126.14 2.09917 4126.56 2.78141 4124.4 4.82815L4124.82 2.25078C4118.37 2.5919 4111.59 0.848385 4105.3 0.545165C4093.02 -0.0233717 4080.93 2.74351 4068.99 0.545165L4069.44 2.25078C4061.25 2.28868 4053.14 1.30322 4044.99 1.37902C4036.28 1.45483 4021.49 1.41692 4013.27 2.5919C4010.39 3.00883 4011.22 4.75234 4010.46 4.82815H4009.14L4008.68 3.12253C4008.23 5.43458 4005.65 5.32088 4003.53 4.82815C4002.85 4.63863 4000.19 -0.554002 3999.36 4.82815L4002.01 4.41122C3999.85 9.49014 3992.99 1.83385 3989.62 5.6999C3989.58 4.79024 3989.58 3.19834 3988.78 2.66771C3985.07 0.166146 3971.43 4.41122 3966.95 3.27415L3966.12 4.86604L3964.34 3.16043L3963.5 4.79024L3960.32 3.99429L3963.88 1.45482C3954.29 1.68223 3944.7 3.57736 3935.11 3.80478C3930.87 3.91849 3924.84 1.75804 3919.95 3.91848L3919.16 2.32658C3917.68 4.22171 3917.15 4.03219 3915.56 2.36448L3913.85 4.03218L3913.4 1.45482C3912.45 0.848377 3897.14 2.13707 3894.52 2.51609C3892.97 2.74351 3887.96 5.88942 3890.35 2.32658L3885.01 3.19834L3886.03 5.66199C3887.13 6.53375 3898.16 2.59189 3900.06 5.7378L3900.93 3.19834L3902.71 6.60955C3894.52 6.60955 3886.18 9.45225 3878.79 4.90395H3883.23C3886.6 1.87176 3872.23 2.21288 3871.21 2.32658C3843.73 5.05556 3813.6 -0.554001 3785.86 3.61527C3784.79 3.80478 3783.77 3.23624 3782.75 3.19834L3781.72 4.97974C3778.84 0.393548 3778.62 3.88058 3778.2 3.99429C3776.91 4.29751 3770.43 2.70561 3768.38 2.66771C3764.9 2.554 3762.7 3.88058 3759.32 3.91848C3738.82 4.1838 3722.33 1.83385 3700.95 3.91848C3693.6 4.63863 3684.16 1.56853 3676.24 5.05555L3676.66 3.31204C3665.06 4.56282 3653.58 2.89512 3641.98 2.7056C3639.55 2.6677 3631.25 2.36449 3629.62 2.85722C3627.73 3.42575 3628.33 4.82814 3626.63 5.05555C3625.11 5.24506 3623.29 4.82814 3621.7 4.97974L3622.61 3.27415C3621.36 2.44029 3605.52 5.05555 3602.67 5.05555C3600.78 5.09345 3599.03 4.1459 3597.33 4.1459C3561.25 3.84268 3525.28 2.89512 3489.15 3.27415C3482.67 3.34995 3468.04 3.12253 3462.59 4.1459C3460.05 4.63863 3461.37 7.63292 3456.9 6.26843C3455.65 5.8894 3455.19 3.50156 3452.39 5.01766L3453.3 3.31204H3448.41L3451.52 5.01766H3441.78L3441.36 6.72327L3440.03 5.01766L3439.43 6.72327H3417.82L3418.73 5.01766C3411.91 1.87175 3405.16 4.52493 3398.8 4.56283C3389.13 4.63863 3379.88 4.1838 3370.37 4.1838C3359.45 4.14589 3349.9 5.62409 3338.53 5.39667C3333.07 5.28297 3327.65 3.65316 3322.12 4.1838L3323.9 5.88941C3318.4 6.60956 3312.79 4.52492 3307.53 4.41122C3266.4 3.65317 3211.9 1.75804 3174.56 8.31516C3168.08 9.45224 3148.34 9.37643 3140.79 9.18692C3137.61 9.07321 3130.67 8.42887 3130.67 8.42887C3130.67 8.42887 3126.5 7.59502 3123.85 6.15473C3122.75 6.30634 3122.03 6.79907 3121.39 7.63292C3119.34 3.61526 3111.27 7.63293 3107.14 5.16927L3106.23 6.83697C3100.12 4.37331 3095.05 6.07892 3088.72 5.88941L3087.28 7.63292L3086.82 5.92731C3084.51 8.20145 3080.76 6.98859 3078.1 7.67083C3077.38 7.86034 3077.61 9.11111 3077.08 9.18692C3074.58 9.49014 3068.06 6.98858 3067.3 10.2103L3066.88 8.50467L3062.45 7.59502L3061 6.83697H3057C3042.9 6.57165 3053.01 4.79024 3038.87 5.01766C3002.56 5.54829 2965.65 5.54828 2928.96 5.92731C2908.98 6.11682 2888.7 6.91277 2868.65 6.68536C2863.46 6.64746 2865.36 6.04102 2863.46 5.8136C2858.61 5.20716 2850.88 5.8136 2845.65 5.8136C2818.7 6.00312 2791.26 6.26843 2764.12 7.55711C2762.6 7.63292 2761.24 8.35307 2759.76 8.46678L2758.81 6.68536C2753.92 9.30063 2746.27 7.48132 2740.32 7.67083C2736.75 7.78454 2731.41 9.30063 2728.6 9.18692C2727.58 9.14902 2726.63 8.61838 2726.48 7.55711L2731.79 6.68536H2722.5L2722.65 8.23936L2721.44 8.58048L2722.05 10.1345C2719.39 9.52804 2715.15 9.60384 2712.72 9.11111C2712.31 8.99741 2710.11 4.63863 2707.34 10.1724L2702.53 9.30064L2701.5 8.23936L2699 8.46678L2697.5 9.11111C2695.49 6.76116 2694.87 9.18692 2695.86 6.68536C2677.21 6.91277 2658.41 6.38213 2640.06 8.42887L2639.15 6.68536C2637.15 8.23936 2633.81 9.90707 2632.94 6.68536C2624.68 9.79336 2613.49 5.96522 2604.51 6.64746C2601.48 6.87488 2599.85 8.23936 2597.01 8.39097L2597.92 6.68536C2595.64 6.91277 2592.16 5.54829 2592.57 8.39097L2591.28 6.79908C2582.79 7.1781 2574.04 8.39096 2565.55 8.42887C2546.26 8.50467 2526.66 7.44341 2507.97 7.51922H2466.74L2470.26 8.39097C2468.75 12.1812 2465.64 7.67082 2465.18 7.55711C2464.16 7.3676 2462.3 8.39097 2460.97 7.55711L2461.39 10.1345C2460.22 11.3853 2457.72 5.35877 2458.28 10.1345H2454.3L2456.09 8.42887C2448.32 8.84579 2442.1 11.1199 2434.41 8.42887L2434.82 10.1345C2431.11 9.22482 2424.36 11.9538 2422.39 9.30064L2427.7 8.42887C2424.63 8.46677 2421.52 7.67082 2418.45 7.55711C2405.56 7.06438 2386.57 6.49584 2374.03 7.55711C2372.17 7.70872 2370.73 9.30063 2369.82 9.14902C2364.13 8.27727 2364.74 8.46677 2359.02 8.50467C2325.63 8.80789 2292.12 9.14901 2258.8 10.9304C2257.63 10.9683 2256.53 10.3619 2255.35 10.2482L2253.53 12.7498C2252.81 10.3619 2249.82 11.8022 2247.32 9.26273C2245.95 8.65629 2246.22 10.8167 2245.42 11.0062C2242.92 11.5748 2238.98 10.6272 2236.25 11.0062L2245.12 9.30064L2179.93 8.39097L2148.51 9.30064L2150.29 11.0441H2148.09L2146.76 9.30064Z" fill="#EFBE25"/>
</g>
<mask id="mask3_10909_15322" style="mask-type:alpha" maskUnits="userSpaceOnUse" x="3219" y="-10" width="1073" height="49">
<rect width="1073" height="49" transform="matrix(-1 0 0 1 4292 -10)" fill="#D9D9D9"/>
</mask>
<g mask="url(#mask3_10909_15322)">
<path d="M4291.24 9.30064L4292 11.0441V39H2145.58V0.469358C2155.93 0.0524315 2169.42 0.469358 2180.15 0.469358C2204.18 0.545163 2227.98 1.56853 2252.05 0.469358L2253.75 2.25078C2254.17 -1.00883 2260.73 1.37901 2262.62 3.08462C2263.34 3.38784 2262.77 1.60644 2263.64 1.37902C2265.53 0.915756 2274.32 0.92155 2277.89 0.923899L2278.5 0.924184C2288.09 0.924184 2298.74 1.41692 2308.45 1.90966C2311.86 2.09917 2311.44 2.78141 2313.6 4.82815L2313.18 2.25078C2319.63 2.5919 2326.41 0.848385 2332.7 0.545165C2344.98 -0.0233717 2357.07 2.74351 2369.01 0.545165L2368.56 2.25078C2376.75 2.28868 2384.86 1.30322 2393.01 1.37902C2401.72 1.45483 2416.51 1.41692 2424.73 2.5919C2427.61 3.00883 2426.78 4.75234 2427.54 4.82815H2428.86L2429.32 3.12253C2429.77 5.43458 2432.35 5.32088 2434.47 4.82815C2435.15 4.63863 2437.81 -0.554002 2438.64 4.82815L2435.99 4.41122C2438.15 9.49014 2445.01 1.83385 2448.38 5.6999C2448.42 4.79024 2448.42 3.19834 2449.22 2.66771C2452.93 0.166146 2466.57 4.41122 2471.05 3.27415L2471.88 4.86604L2473.66 3.16043L2474.5 4.79024L2477.68 3.99429L2474.12 1.45482C2483.71 1.68223 2493.3 3.57736 2502.89 3.80478C2507.13 3.91849 2513.16 1.75804 2518.05 3.91848L2518.84 2.32658C2520.32 4.22171 2520.85 4.03219 2522.44 2.36448L2524.15 4.03218L2524.6 1.45482C2525.55 0.848377 2540.86 2.13707 2543.48 2.51609C2545.03 2.74351 2550.04 5.88942 2547.65 2.32658L2552.99 3.19834L2551.97 5.66199C2550.87 6.53375 2539.84 2.59189 2537.94 5.7378L2537.07 3.19834L2535.29 6.60955C2543.48 6.60955 2551.82 9.45225 2559.21 4.90395H2554.77C2551.4 1.87176 2565.77 2.21288 2566.79 2.32658C2594.27 5.05556 2624.4 -0.554001 2652.14 3.61527C2653.21 3.80478 2654.23 3.23624 2655.25 3.19834L2656.28 4.97974C2659.16 0.393548 2659.38 3.88058 2659.8 3.99429C2661.09 4.29751 2667.57 2.70561 2669.62 2.66771C2673.1 2.554 2675.3 3.88058 2678.68 3.91848C2699.18 4.1838 2715.67 1.83385 2737.05 3.91848C2744.4 4.63863 2753.84 1.56853 2761.76 5.05555L2761.34 3.31204C2772.94 4.56282 2784.42 2.89512 2796.02 2.7056C2798.45 2.6677 2806.75 2.36449 2808.38 2.85722C2810.27 3.42575 2809.67 4.82814 2811.37 5.05555C2812.89 5.24506 2814.71 4.82814 2816.3 4.97974L2815.39 3.27415C2816.64 2.44029 2832.48 5.05555 2835.33 5.05555C2837.22 5.09345 2838.97 4.1459 2840.67 4.1459C2876.75 3.84268 2912.72 2.89512 2948.85 3.27415C2955.33 3.34995 2969.96 3.12253 2975.41 4.1459C2977.95 4.63863 2976.63 7.63292 2981.1 6.26843C2982.35 5.8894 2982.81 3.50156 2985.61 5.01766L2984.7 3.31204H2989.59L2986.48 5.01766H2996.22L2996.64 6.72327L2997.97 5.01766L2998.57 6.72327H3020.18L3019.27 5.01766C3026.09 1.87175 3032.84 4.52493 3039.2 4.56283C3048.87 4.63863 3058.12 4.1838 3067.63 4.1838C3078.55 4.14589 3088.1 5.62409 3099.47 5.39667C3104.93 5.28297 3110.35 3.65316 3115.88 4.1838L3114.1 5.88941C3119.6 6.60956 3125.21 4.52492 3130.47 4.41122C3171.6 3.65317 3226.1 1.75804 3263.44 8.31516C3269.92 9.45224 3289.66 9.37643 3297.21 9.18692C3300.39 9.07321 3307.33 8.42887 3307.33 8.42887C3307.33 8.42887 3311.5 7.59502 3314.15 6.15473C3315.25 6.30634 3315.97 6.79907 3316.61 7.63292C3318.66 3.61526 3326.73 7.63293 3330.86 5.16927L3331.77 6.83697C3337.88 4.37331 3342.95 6.07892 3349.28 5.88941L3350.72 7.63292L3351.18 5.92731C3353.49 8.20145 3357.24 6.98859 3359.9 7.67083C3360.62 7.86034 3360.39 9.11111 3360.92 9.18692C3363.42 9.49014 3369.94 6.98858 3370.7 10.2103L3371.12 8.50467L3375.55 7.59502L3377 6.83697H3381C3395.1 6.57165 3384.99 4.79024 3399.13 5.01766C3435.44 5.54829 3472.35 5.54828 3509.04 5.92731C3529.02 6.11682 3549.3 6.91277 3569.35 6.68536C3574.54 6.64746 3572.64 6.04102 3574.54 5.8136C3579.39 5.20716 3587.12 5.8136 3592.35 5.8136C3619.3 6.00312 3646.74 6.26843 3673.88 7.55711C3675.4 7.63292 3676.76 8.35307 3678.24 8.46678L3679.19 6.68536C3684.08 9.30063 3691.73 7.48132 3697.68 7.67083C3701.25 7.78454 3706.59 9.30063 3709.4 9.18692C3710.42 9.14902 3711.37 8.61838 3711.52 7.55711L3706.21 6.68536H3715.5L3715.35 8.23936L3716.56 8.58048L3715.95 10.1345C3718.61 9.52804 3722.85 9.60384 3725.28 9.11111C3725.69 8.99741 3727.89 4.63863 3730.66 10.1724L3735.47 9.30064L3736.5 8.23936L3739 8.46678L3740.5 9.11111C3742.51 6.76116 3743.13 9.18692 3742.14 6.68536C3760.79 6.91277 3779.59 6.38213 3797.94 8.42887L3798.85 6.68536C3800.85 8.23936 3804.19 9.90707 3805.06 6.68536C3813.32 9.79336 3824.51 5.96522 3833.49 6.64746C3836.52 6.87488 3838.15 8.23936 3840.99 8.39097L3840.08 6.68536C3842.36 6.91277 3845.84 5.54829 3845.43 8.39097L3846.72 6.79908C3855.21 7.1781 3863.96 8.39096 3872.45 8.42887C3891.74 8.50467 3911.34 7.44341 3930.03 7.51922H3971.26L3967.74 8.39097C3969.25 12.1812 3972.36 7.67082 3972.82 7.55711C3973.84 7.3676 3975.7 8.39097 3977.03 7.55711L3976.61 10.1345C3977.78 11.3853 3980.28 5.35877 3979.72 10.1345H3983.7L3981.91 8.42887C3989.68 8.84579 3995.9 11.1199 4003.59 8.42887L4003.18 10.1345C4006.89 9.22482 4013.64 11.9538 4015.61 9.30064L4010.3 8.42887C4013.37 8.46677 4016.48 7.67082 4019.55 7.55711C4032.44 7.06438 4051.43 6.49584 4063.97 7.55711C4065.83 7.70872 4067.27 9.30063 4068.18 9.14902C4073.87 8.27727 4073.26 8.46677 4078.98 8.50467C4112.37 8.80789 4145.88 9.14901 4179.2 10.9304C4180.37 10.9683 4181.47 10.3619 4182.65 10.2482L4184.47 12.7498C4185.19 10.3619 4188.18 11.8022 4190.68 9.26273C4192.05 8.65629 4191.78 10.8167 4192.58 11.0062C4195.08 11.5748 4199.02 10.6272 4201.75 11.0062L4192.88 9.30064L4258.07 8.39097L4289.49 9.30064L4287.71 11.0441H4289.91L4291.24 9.30064Z" fill="#EFBE25"/>
</g>
</g>
<defs>
<clipPath id="clip0_10909_15322">
<rect width="4292" height="39" fill="white"/>
</clipPath>
</defs>
</svg>
