<svg width="7" height="770" viewBox="0 0 7 770" fill="none" xmlns="http://www.w3.org/2000/svg">
<g clip-path="url(#clip0_10909_15379)">
<path d="M3.73916 365.964C3.54964 366.23 4.06183 367.635 4.25134 369C4.38422 369.997 4.26907 381.564 3.78637 385H7.75137V0H1.24791C1.16027 2.42464 1.70004 5.14016 1.50291 7.40714C-1.60509 45.2717 0.896472 88.7458 1.99564 127.027C2.29886 137.261 2.22306 141.733 3.73916 151.929C3.73916 152.081 0.85857 152.536 1.99564 154.848L3.73916 153.142C4.76252 155.682 2.18516 155.606 1.99564 156.25C1.84403 156.743 3.01901 164.21 2.9053 166.408C2.33677 176.983 1.16179 187.482 1.01018 197.981C0.934375 202.036 1.61662 206.243 1.08598 210.375L2.8674 211.663L1.08598 211.247V217.235C4.87623 214.696 1.46501 222.162 1.2755 223.641C0.70696 228.454 2.56418 233.95 2.63998 238.195C2.71579 243.881 1.19969 250.892 1.04808 256.919C0.896472 262.604 1.16179 268.328 1.04808 274.051L3.70125 273.634L2.71579 286.9C5.40686 291.789 2.98111 297.285 3.70125 302.705L1.95774 300.166C3.01901 310.551 1.42711 320.974 1.61662 331.284C1.84403 342.237 2.8295 353.343 3.73916 364.221L3.78637 365C3.28637 366.464 3.89077 365.775 3.73916 365.964Z" fill="#1DD4D8"/>
<path d="M3.73916 404.036C3.54964 403.77 4.06183 402.365 4.25134 401C4.38422 400.003 4.26907 388.436 3.78637 385H7.75137V770H1.24791C1.16027 767.575 1.70004 764.86 1.50291 762.593C-1.60509 724.728 0.896472 681.254 1.99564 642.973C2.29886 632.739 2.22306 628.267 3.73916 618.071C3.73916 617.919 0.85857 617.464 1.99564 615.152L3.73916 616.858C4.76252 614.318 2.18516 614.394 1.99564 613.75C1.84403 613.257 3.01901 605.79 2.9053 603.592C2.33677 593.017 1.16179 582.518 1.01018 572.019C0.934375 567.964 1.61662 563.757 1.08598 559.625L2.8674 558.337L1.08598 558.753V552.765C4.87623 555.304 1.46501 547.838 1.2755 546.359C0.70696 541.546 2.56418 536.05 2.63998 531.805C2.71579 526.119 1.19969 519.108 1.04808 513.081C0.896472 507.396 1.16179 501.672 1.04808 495.949L3.70125 496.366L2.71579 483.1C5.40686 478.211 2.98111 472.715 3.70125 467.295L1.95774 469.834C3.01901 459.449 1.42711 449.026 1.61662 438.716C1.84403 427.763 2.8295 416.657 3.73916 405.779L3.78637 405C3.28637 403.536 3.89077 404.225 3.73916 404.036Z" fill="#1DD4D8"/>
<path d="M3.73916 365.964C3.54964 366.23 4.06183 367.635 4.25134 369C4.38422 369.997 4.26907 381.564 3.78637 385H7.75137V0H1.24791C1.16027 2.42464 1.70004 5.14016 1.50291 7.40714C-1.60509 45.2717 0.896472 88.7458 1.99564 127.027C2.29886 137.261 2.22306 141.733 3.73916 151.929C3.73916 152.081 0.85857 152.536 1.99564 154.848L3.73916 153.142C4.76252 155.682 2.18516 155.606 1.99564 156.25C1.84403 156.743 3.01901 164.21 2.9053 166.408C2.33677 176.983 1.16179 187.482 1.01018 197.981C0.934375 202.036 1.61662 206.243 1.08598 210.375L2.8674 211.663L1.08598 211.247V217.235C4.87623 214.696 1.46501 222.162 1.2755 223.641C0.70696 228.454 2.56418 233.95 2.63998 238.195C2.71579 243.881 1.19969 250.892 1.04808 256.919C0.896472 262.604 1.16179 268.328 1.04808 274.051L3.70125 273.634L2.71579 286.9C5.40686 291.789 2.98111 297.285 3.70125 302.705L1.95774 300.166C3.01901 310.551 1.42711 320.974 1.61662 331.284C1.84403 342.237 2.8295 353.343 3.73916 364.221L3.78637 365C3.28637 366.464 3.89077 365.775 3.73916 365.964Z" fill="#EFBE25"/>
<path d="M3.73916 404.036C3.54964 403.77 4.06183 402.365 4.25134 401C4.38422 400.003 4.26907 388.436 3.78637 385H7.75137V770H1.24791C1.16027 767.575 1.70004 764.86 1.50291 762.593C-1.60509 724.728 0.896472 681.254 1.99564 642.973C2.29886 632.739 2.22306 628.267 3.73916 618.071C3.73916 617.919 0.85857 617.464 1.99564 615.152L3.73916 616.858C4.76252 614.318 2.18516 614.394 1.99564 613.75C1.84403 613.257 3.01901 605.79 2.9053 603.592C2.33677 593.017 1.16179 582.518 1.01018 572.019C0.934375 567.964 1.61662 563.757 1.08598 559.625L2.8674 558.337L1.08598 558.753V552.765C4.87623 555.304 1.46501 547.838 1.2755 546.359C0.70696 541.546 2.56418 536.05 2.63998 531.805C2.71579 526.119 1.19969 519.108 1.04808 513.081C0.896472 507.396 1.16179 501.672 1.04808 495.949L3.70125 496.366L2.71579 483.1C5.40686 478.211 2.98111 472.715 3.70125 467.295L1.95774 469.834C3.01901 459.449 1.42711 449.026 1.61662 438.716C1.84403 427.763 2.8295 416.657 3.73916 405.779L3.78637 405C3.28637 403.536 3.89077 404.225 3.73916 404.036Z" fill="#EFBE25"/>
</g>
<defs>
<clipPath id="clip0_10909_15379">
<rect width="7" height="770" fill="white"/>
</clipPath>
</defs>
</svg>
